<svg width="32" height="32" viewBox="0 0 32 32" fill="none" xmlns="http://www.w3.org/2000/svg">
<path d="M16.7026 6.00889H17.1263C15.7411 7.33523 14.8506 9.11983 14.6099 11.0525C14.3691 12.9851 14.7931 14.9436 15.8084 16.5875C16.8236 18.2314 18.3657 19.4567 20.1668 20.0505C21.9678 20.6443 23.9139 20.5691 25.6667 19.8378C24.9924 21.5094 23.8904 22.9611 22.4783 24.0381C21.0661 25.115 19.3967 25.7767 17.6482 25.9527C15.8996 26.1286 14.1375 25.8122 12.5498 25.0371C10.9621 24.2621 9.6084 23.0574 8.63303 21.5518C7.65766 20.0461 7.09724 18.2959 7.01155 16.4877C6.92586 14.6796 7.31812 12.8814 8.14647 11.285C8.97483 9.68859 10.2082 8.3538 11.7151 7.42304C13.2219 6.49227 14.9457 6.00044 16.7026 6V6.00889Z" stroke="black" stroke-width="2.25" stroke-linecap="round" stroke-linejoin="round"/>
</svg>
