<svg width="151" height="154" viewBox="0 0 151 154" fill="none" xmlns="http://www.w3.org/2000/svg">
<path d="M21.8841 29.0359C29.0913 26.2636 32.688 18.1757 29.9156 10.9685C27.1453 3.75916 19.0554 0.164565 11.8481 2.9349C4.64087 5.70523 1.04426 13.7951 3.8166 21.0024C6.58693 28.2096 14.6768 31.8062 21.8841 29.0359Z" fill="#F6F6F1" stroke="black" stroke-width="4"/>
<path d="M148.647 46.8313C148.907 45.7578 148.248 44.6767 147.174 44.4167L43.9479 19.4161C42.8744 19.1561 41.7934 19.8156 41.5334 20.8891L16.5327 124.114C16.2727 125.187 16.9322 126.268 18.0058 126.528L121.232 151.529C122.306 151.789 123.387 151.129 123.647 150.056L148.647 46.8313Z" fill="#F6F6F1" stroke="black" stroke-width="4"/>
<path d="M81.3738 146.228C115.14 146.228 142.512 118.854 142.512 85.0875C142.512 51.3228 115.14 23.9492 81.3738 23.9492C47.6071 23.9492 20.2335 51.3228 20.2335 85.0875C20.2335 118.854 47.6071 146.228 81.3738 146.228Z" fill="#F6F6F1" stroke="black" stroke-width="4"/>
<path d="M113.004 115.343C114.097 115.186 114.857 114.173 114.7 113.079L105.014 45.4526C104.858 44.3592 103.844 43.5997 102.751 43.7564L61.9691 49.6014C61.4441 49.6767 60.9705 49.9574 60.6524 50.3818L49.7484 64.9322C49.4303 65.3566 49.2939 65.8901 49.3691 66.4151L57.2328 121.314C57.3894 122.407 58.4028 123.167 59.4962 123.01L113.004 115.343Z" fill="#F6F6F1" stroke="black" stroke-width="4"/>
<path d="M61.037 63.7822C62.1235 63.6219 62.8775 62.6156 62.7261 61.5279L61.2478 50.9045C60.9999 49.1227 58.7092 48.5486 57.6502 50.0027L48.8043 62.1488C47.7607 63.5818 48.9591 65.5635 50.7128 65.3049L61.037 63.7822Z" fill="#F6F6F1" stroke="black" stroke-width="4"/>
<path d="M64.4583 72.6095L91.5182 68.7314L64.4583 72.6095Z" fill="#F6F6F1"/>
<path d="M64.4583 72.6095L91.5182 68.7314" stroke="black" stroke-width="4" stroke-linecap="round"/>
<path d="M67.305 92.4783L88.8444 89.4004L67.305 92.4783Z" fill="#F6F6F1"/>
<path d="M67.305 92.4783L88.8444 89.4004" stroke="black" stroke-width="4" stroke-linecap="round"/>
<path d="M65.8917 82.5349L82.1799 80.2148L65.8917 82.5349Z" fill="#F6F6F1"/>
<path d="M65.8917 82.5349L82.1799 80.2148" stroke="black" stroke-width="4" stroke-linecap="round"/>
</svg>
