<svg width="32" height="32" viewBox="0 0 32 32" fill="none" xmlns="http://www.w3.org/2000/svg">
<path d="M5.36425 24H20.3711C21.1214 24 21.7353 23.4 21.7353 22.6667C21.7353 21.9333 21.1214 21.3333 20.3711 21.3333H5.36425C4.61391 21.3333 4 21.9333 4 22.6667C4 23.4 4.61391 24 5.36425 24ZM5.36425 17.3333H16.2783C17.0286 17.3333 17.6425 16.7333 17.6425 16C17.6425 15.2667 17.0286 14.6667 16.2783 14.6667H5.36425C4.61391 14.6667 4 15.2667 4 16C4 16.7333 4.61391 17.3333 5.36425 17.3333ZM4 9.33333C4 10.0667 4.61391 10.6667 5.36425 10.6667H20.3711C21.1214 10.6667 21.7353 10.0667 21.7353 9.33333C21.7353 8.6 21.1214 8 20.3711 8H5.36425C4.61391 8 4 8.6 4 9.33333ZM27.6016 19.84L23.6726 16L27.6016 12.16C27.7279 12.0366 27.8281 11.89 27.8965 11.7287C27.9648 11.5674 28 11.3946 28 11.22C28 11.0454 27.9648 10.8726 27.8965 10.7113C27.8281 10.55 27.7279 10.4034 27.6016 10.28C27.4753 10.1566 27.3254 10.0586 27.1603 9.99183C26.9953 9.92502 26.8184 9.89064 26.6398 9.89064C26.4612 9.89064 26.2843 9.92502 26.1193 9.99183C25.9543 10.0586 25.8043 10.1566 25.678 10.28L20.7803 15.0667C20.6539 15.19 20.5535 15.3365 20.4851 15.4978C20.4166 15.6591 20.3814 15.832 20.3814 16.0067C20.3814 16.1813 20.4166 16.3542 20.4851 16.5155C20.5535 16.6768 20.6539 16.8233 20.7803 16.9467L25.678 21.7333C26.2101 22.2533 27.0695 22.2533 27.6016 21.7333C28.12 21.2133 28.1337 20.36 27.6016 19.84Z" fill="black"/>
</svg>
