<svg width="32" height="32" viewBox="0 0 32 32" fill="none" xmlns="http://www.w3.org/2000/svg">
<path d="M16.8552 4.35486C16.7437 4.24241 16.611 4.15317 16.4648 4.09226C16.3186 4.03136 16.1618 4 16.0035 4C15.8451 4 15.6883 4.03136 15.5421 4.09226C15.3959 4.15317 15.2632 4.24241 15.1517 4.35486L4.35485 15.1517C4.24241 15.2632 4.15317 15.3959 4.09226 15.5421C4.03136 15.6883 4 15.8451 4 16.0035C4 16.1618 4.03136 16.3186 4.09226 16.4648C4.15317 16.611 4.24241 16.7437 4.35485 16.8552C4.46695 16.9664 4.59989 17.0544 4.74605 17.1141C4.89222 17.1738 5.04873 17.204 5.20661 17.2031H6.40626V25.6007C6.40626 26.237 6.65904 26.8473 7.109 27.2973C7.55895 27.7472 8.16923 28 8.80556 28H23.2014C23.8377 28 24.448 27.7472 24.8979 27.2973C25.3479 26.8473 25.6007 26.237 25.6007 25.6007V17.2031H26.8003C27.1185 17.2031 27.4236 17.0767 27.6486 16.8518C27.8736 16.6268 28 16.3216 28 16.0035C28.0009 15.8456 27.9706 15.6891 27.9109 15.5429C27.8512 15.3968 27.7633 15.2638 27.6521 15.1517L16.8552 4.35486ZM8.80556 25.6007V14.096L16.0035 6.89812L23.2014 14.096V25.6007H8.80556Z" fill="black"/>
</svg>
