<svg width="32" height="32" viewBox="0 0 32 32" fill="none" xmlns="http://www.w3.org/2000/svg">
<path d="M15.5 27C17.0105 27.0019 18.5065 26.7054 19.902 26.1273C21.2975 25.5493 22.565 24.7011 23.6317 23.6316C24.7012 22.565 25.5493 21.2975 26.1274 19.902C26.7054 18.5065 27.002 17.0105 27 15.5C27.0019 13.9895 26.7054 12.4935 26.1273 11.098C25.5493 9.70255 24.7011 8.43504 23.6317 7.36836C22.565 6.29887 21.2975 5.45073 19.902 4.87268C18.5065 4.29462 17.0105 3.99805 15.5 4.00001C13.9895 3.99808 12.4936 4.29467 11.0981 4.87272C9.70258 5.45077 8.43507 6.2989 7.36839 7.36836C6.29893 8.43504 5.45081 9.70255 4.87275 11.098C4.2947 12.4935 3.99811 13.9895 4.00004 15.5C3.99808 17.0105 4.29465 18.5065 4.87271 19.902C5.45076 21.2975 6.2989 22.565 7.36839 23.6316C8.43507 24.7011 9.70258 25.5492 11.0981 26.1273C12.4936 26.7053 13.9895 27.0019 15.5 27V27Z" stroke="black" stroke-width="2.3" stroke-linejoin="round"/>
<path d="M15.5001 18.159V15.859C16.1824 15.859 16.8494 15.6566 17.4168 15.2775C17.9841 14.8985 18.4263 14.3596 18.6875 13.7292C18.9486 13.0988 19.0169 12.4052 18.8838 11.7359C18.7507 11.0667 18.4221 10.452 17.9396 9.96947C17.4571 9.48698 16.8424 9.1584 16.1731 9.02528C15.5039 8.89216 14.8102 8.96048 14.1798 9.2216C13.5494 9.48272 13.0106 9.92492 12.6315 10.4923C12.2524 11.0596 12.0501 11.7266 12.0501 12.409" stroke="black" stroke-width="2.3" stroke-linecap="round" stroke-linejoin="round"/>
<path fill-rule="evenodd" clip-rule="evenodd" d="M15.5001 23.334C15.8813 23.334 16.2469 23.1825 16.5165 22.9129C16.7861 22.6434 16.9376 22.2777 16.9376 21.8965C16.9376 21.5152 16.7861 21.1496 16.5165 20.88C16.2469 20.6104 15.8813 20.459 15.5001 20.459C15.1188 20.459 14.7532 20.6104 14.4836 20.88C14.214 21.1496 14.0626 21.5152 14.0626 21.8965C14.0626 22.2777 14.214 22.6434 14.4836 22.9129C14.7532 23.1825 15.1188 23.334 15.5001 23.334Z" fill="black"/>
</svg>
