<svg width="32" height="32" viewBox="0 0 32 32" fill="none" xmlns="http://www.w3.org/2000/svg">
<path d="M12.6181 26.3333C10.8539 25.7853 9.2561 24.7714 7.98027 23.3903C8.39076 22.8838 8.64665 22.2614 8.71519 21.6027C8.78374 20.944 8.66182 20.2791 8.36504 19.6929C8.06825 19.1067 7.61011 18.626 7.04922 18.3122C6.48834 17.9984 5.85022 17.8659 5.21653 17.9316C5.07217 17.1959 4.99962 16.4469 5 15.6961C5 14.5364 5.17067 13.4178 5.48853 12.3669H5.53333C6.0772 12.3671 6.61214 12.223 7.08765 11.9484C7.56315 11.6737 7.96352 11.2775 8.25095 10.7972C8.53838 10.3168 8.7034 9.76821 8.73041 9.20308C8.75742 8.63796 8.64554 8.07499 8.40533 7.56735C9.65578 6.35598 11.168 5.47542 12.8144 5C13.0823 5.54732 13.4906 6.00685 13.994 6.32776C14.4974 6.64866 15.0763 6.81843 15.6667 6.81828C16.257 6.81843 16.836 6.64866 17.3394 6.32776C17.8427 6.00685 18.251 5.54732 18.5189 5C20.1653 5.47542 21.6775 6.35598 22.928 7.56735C22.686 8.07855 22.5742 8.6458 22.6033 9.21482C22.6324 9.78383 22.8014 10.3356 23.0941 10.8172C23.3868 11.2988 23.7934 11.6942 24.275 11.9656C24.7566 12.2369 25.2971 12.3751 25.8448 12.3669C26.1696 13.4443 26.3343 14.5669 26.3333 15.6961C26.3333 16.4618 26.2587 17.2097 26.1168 17.9316C25.4831 17.8659 24.845 17.9984 24.2841 18.3122C23.7232 18.626 23.2651 19.1067 22.9683 19.6929C22.6715 20.2791 22.5496 20.944 22.6181 21.6027C22.6867 22.2614 22.9426 22.8838 23.3531 23.3903C22.0772 24.7714 20.4794 25.7853 18.7152 26.3333C18.508 25.6616 18.1012 25.0756 17.5533 24.6598C17.0054 24.2441 16.3448 24.0201 15.6667 24.0201C14.9885 24.0201 14.3279 24.2441 13.78 24.6598C13.2322 25.0756 12.8253 25.6616 12.6181 26.3333Z" stroke="black" stroke-width="2.25" stroke-linejoin="round"/>
<path d="M15.6667 19.2224C16.1336 19.2224 16.5959 19.1305 17.0273 18.9518C17.4587 18.7731 17.8507 18.5112 18.1808 18.181C18.511 17.8509 18.7729 17.4589 18.9516 17.0275C19.1303 16.5962 19.2222 16.1338 19.2222 15.6669C19.2222 15.2 19.1303 14.7376 18.9516 14.3062C18.7729 13.8749 18.511 13.4829 18.1808 13.1527C17.8507 12.8226 17.4587 12.5607 17.0273 12.382C16.5959 12.2033 16.1336 12.1113 15.6667 12.1113C14.7237 12.1113 13.8193 12.4859 13.1525 13.1527C12.4857 13.8195 12.1111 14.7239 12.1111 15.6669C12.1111 16.6099 12.4857 17.5142 13.1525 18.181C13.8193 18.8478 14.7237 19.2224 15.6667 19.2224V19.2224Z" stroke="black" stroke-width="2.25" stroke-linejoin="round"/>
</svg>
