<svg width="22" height="22" viewBox="0 0 22 22" fill="none" xmlns="http://www.w3.org/2000/svg">
<path d="M15.2367 1.47874C15.0622 1.39475 14.8679 1.36073 14.6752 1.38045C14.4826 1.40017 14.2992 1.47286 14.1453 1.59046L8.24141 6.18812H4.46875C4.01361 6.19037 3.57775 6.37218 3.25591 6.69402C2.93407 7.01586 2.75226 7.45172 2.75 7.90687V13.4069C2.75226 13.862 2.93407 14.2979 3.25591 14.6197C3.57775 14.9415 4.01361 15.1234 4.46875 15.1256H8.24141L14.1453 19.7233C14.3295 19.8599 14.552 19.9351 14.7812 19.9381C14.9388 19.9378 15.0944 19.9026 15.2367 19.835C15.41 19.7497 15.5558 19.6175 15.6576 19.4534C15.7594 19.2893 15.813 19.1 15.8125 18.9069V2.40687C15.813 2.21377 15.7594 2.0244 15.6576 1.86032C15.5558 1.69623 15.41 1.56402 15.2367 1.47874ZM13.75 16.8014L9.22969 13.278C9.04698 13.1386 8.82355 13.0631 8.59375 13.0631H4.8125V8.25062H8.59375C8.82355 8.25063 9.04698 8.17514 9.22969 8.03577L13.75 4.51233V16.8014Z" fill="white"/>
</svg>
