<svg width="24" height="24" viewBox="0 0 24 24" fill="none" xmlns="http://www.w3.org/2000/svg">
<path d="M13.2887 9.29361L9.29531 13.287C9.20174 13.3798 9.12747 13.4903 9.07678 13.6119C9.0261 13.7336 9 13.8641 9 13.9959C9 14.1277 9.0261 14.2581 9.07678 14.3798C9.12747 14.5015 9.20174 14.6119 9.29531 14.7047C9.38812 14.7983 9.49854 14.8725 9.6202 14.9232C9.74186 14.9739 9.87235 15 10.0041 15C10.1359 15 10.2664 14.9739 10.3881 14.9232C10.5097 14.8725 10.6202 14.7983 10.713 14.7047L14.7064 10.7113C14.8944 10.5233 15 10.2683 15 10.0024C15 9.73658 14.8944 9.4816 14.7064 9.29361C14.5184 9.10561 14.2634 9 13.9976 9C13.7317 9 13.4767 9.10561 13.2887 9.29361Z" fill="#787D83"/>
<path d="M12.2147 16.3186L11.1911 17.3349C10.6164 17.9275 9.84385 18.2876 9.0208 18.3466C8.19774 18.4057 7.38177 18.1595 6.72851 17.655C6.38323 17.3703 6.10148 17.0164 5.90144 16.6159C5.70141 16.2155 5.58754 15.7775 5.56719 15.3303C5.54684 14.8831 5.62046 14.4366 5.7833 14.0196C5.94615 13.6027 6.19459 13.2245 6.51258 12.9096L7.64821 11.7653C7.72317 11.6909 7.78266 11.6024 7.82327 11.5049C7.86387 11.4073 7.88477 11.3027 7.88477 11.1971C7.88477 11.0915 7.86387 10.9869 7.82327 10.8894C7.78266 10.7918 7.72317 10.7033 7.64821 10.6289C7.57386 10.5539 7.48541 10.4944 7.38795 10.4538C7.2905 10.4131 7.18597 10.3922 7.08039 10.3922C6.97482 10.3922 6.87029 10.4131 6.77283 10.4538C6.67537 10.4944 6.58692 10.5539 6.51258 10.6289L5.4969 11.6532C4.6413 12.4823 4.11542 13.5938 4.01687 14.7815C3.91833 15.9692 4.25383 17.1523 4.96107 18.1112C5.38084 18.6561 5.91168 19.1054 6.51832 19.4292C7.12497 19.753 7.79353 19.944 8.4796 19.9894C9.16568 20.0348 9.85356 19.9337 10.4975 19.6926C11.1415 19.4515 11.7269 19.0761 12.2147 18.5913L13.3504 17.455C13.501 17.3043 13.5856 17.0999 13.5856 16.8868C13.5856 16.6737 13.501 16.4693 13.3504 16.3186C13.1998 16.1679 12.9955 16.0833 12.7826 16.0833C12.5696 16.0833 12.3653 16.1679 12.2147 16.3186ZM18.1168 4.97124C17.1519 4.2562 15.9599 3.91708 14.7634 4.01722C13.5669 4.11736 12.4477 4.64991 11.6149 5.5154L10.7512 6.39567C10.6525 6.46748 10.5699 6.55923 10.5089 6.66499C10.4479 6.77075 10.4097 6.88816 10.3969 7.00961C10.3841 7.13106 10.3969 7.25385 10.4345 7.37003C10.4721 7.48621 10.5337 7.59319 10.6153 7.68405C10.6896 7.75906 10.7781 7.81859 10.8755 7.85922C10.973 7.89985 11.0775 7.92076 11.1831 7.92076C11.2886 7.92076 11.3932 7.89985 11.4906 7.85922C11.5881 7.81859 11.6765 7.75906 11.7509 7.68405L12.7906 6.63574C13.362 6.04062 14.1337 5.67852 14.9564 5.6194C15.7791 5.56029 16.5945 5.80834 17.2451 6.31564C17.593 6.60037 17.877 6.95524 18.0786 7.35713C18.2802 7.75901 18.3949 8.1989 18.4153 8.64812C18.4357 9.09735 18.3612 9.54582 18.1968 9.96433C18.0324 10.3828 17.7817 10.762 17.461 11.0771L16.3254 12.2214C16.2505 12.2958 16.191 12.3843 16.1504 12.4818C16.1098 12.5793 16.0889 12.6839 16.0889 12.7896C16.0889 12.8952 16.1098 12.9998 16.1504 13.0973C16.191 13.1948 16.2505 13.2834 16.3254 13.3577C16.3998 13.4328 16.4882 13.4923 16.5857 13.5329C16.6831 13.5735 16.7877 13.5945 16.8932 13.5945C16.9988 13.5945 17.1033 13.5735 17.2008 13.5329C17.2982 13.4923 17.3867 13.4328 17.461 13.3577L18.5967 12.2214C19.0799 11.7333 19.4539 11.1481 19.694 10.5045C19.9341 9.86092 20.0348 9.17362 19.9894 8.48814C19.944 7.80265 19.7536 7.13464 19.4308 6.52834C19.108 5.92204 18.6601 5.39129 18.1168 4.97124Z" fill="#787D83"/>
</svg>
